<!--?xml version="1.0" encoding="utf-8"?-->
<!-- Generator: Adobe Illustrator 19.1.1, SVG Export Plug-In . SVG Version: 6.00 Build 0)  -->
<svg version="1.1" id="_x31_0" xmlns="http://www.w3.org/2000/svg" xmlns:xlink="http://www.w3.org/1999/xlink" x="0px" y="0px" viewBox="0 0 512 512" style="width: 256px; height: 256px; opacity: 1;" xml:space="preserve">
<style type="text/css">
	.st0{fill:#374149;}
</style>
<g>
	<path class="st0" d="M460.282,118.914h-79.938l-2.398-16.594c-4.676-32.43-32.934-56.898-65.699-56.898H199.754
		c-32.766,0-60.984,24.469-65.699,56.898l-2.402,16.594H51.715C23.203,118.914,0,142.074,0,170.59v242.625
		c0,29.442,23.965,53.363,53.359,53.363h405.278c29.442,0,53.363-23.922,53.363-53.363V170.59
		C512,142.074,488.793,118.914,460.282,118.914z M37.902,203.344V170.59c0-7.625,6.191-13.774,13.813-13.774h112.789l7.074-49.106
		c2.019-13.984,14.023-24.386,28.175-24.386h112.493c14.148,0,26.152,10.402,28.171,24.386l7.118,49.106h112.746
		c7.621,0,13.812,6.149,13.812,13.774v30.492l-0.011,2.27l-92.891-6.363c-30.55-34.742-75.347-56.672-125.168-56.672
		c-49.82,0-94.664,21.93-125.218,56.672l-87.086,5.969L37.902,203.344z M214.973,196.988c12.766-4.778,26.613-7.39,41.05-7.39
		c14.438,0,28.286,2.613,41.051,7.39c44.742,16.707,76.629,59.828,76.629,110.289c0,64.95-52.778,117.727-117.68,117.727
		s-117.726-52.778-117.726-117.727C138.297,256.816,170.23,213.696,214.973,196.988z" style="fill: rgb(3, 41, 98);"></path>
	<path class="st0" d="M256.023,378.484c39.278,0,71.16-31.882,71.16-71.207c0-39.277-31.882-71.16-71.16-71.16
		c-5.73,0-11.308,0.746-16.672,2.051c-0.394,0.086-0.82,0.121-1.214,0.21l0.008,0.024c-0.051,0.015-0.106,0.015-0.157,0.031
		l20.993,61.054c2.218,6.406-3.942,12.566-10.348,10.351l-57.614-19.808l-3.586-1.242v0.012l-0.156-0.055
		c-1.626,5.914-2.461,12.126-2.461,18.531C184.817,346.602,216.699,378.484,256.023,378.484z" style="fill: rgb(3, 41, 98);"></path>
</g>
</svg>
